<svg width="114" height="25" viewBox="0 0 114 25" fill="none" xmlns="http://www.w3.org/2000/svg">
<path d="M0 18.0634V6.37324C0.208029 4.70657 0.913017 3.23944 2.11496 1.97183C3.38625 0.657277 4.94647 0 6.79562 0V4.96479C5.8017 4.98826 5.18917 5.46948 4.95803 6.40845C4.9118 6.61972 4.88869 6.79577 4.88869 6.93662V18.0634C4.9118 19.0258 5.44343 19.6596 6.48358 19.9648C6.62226 20.0117 6.72628 20.0352 6.79562 20.0352V25C5.45499 25 4.11436 24.5188 2.77372 23.5563C0.947689 22.1948 0.0231144 20.3639 0 18.0634ZM8.66788 25V20.0352C8.92214 20.0352 9.24574 19.8239 9.63869 19.4014C9.9854 19.0023 10.1588 18.5798 10.1588 18.1338V16.9718H8.66788V12.3944H15.0821V18.6268C15.0821 20.0822 14.3425 21.5141 12.8631 22.9225C11.4532 24.284 10.0547 24.9765 8.66788 25ZM8.66788 4.96479V0C10.3783 0 11.9039 0.751174 13.2445 2.25352C14.4696 3.59155 15.0821 5.05869 15.0821 6.65493L10.2974 8.4507V7.07747C10.2974 5.97418 9.88139 5.29343 9.04927 5.03521C8.91058 4.98826 8.78345 4.96479 8.66788 4.96479Z" fill="#222222"/>
<path d="M17.7172 24.8239V0.176056H30.3376V5.10563H22.6058V10.1056H27.0785V15.0704H22.6058V19.8592H30.3376V24.8239H17.7172Z" fill="#222222"/>
<path d="M33.1113 24.8239V0.176056H38V24.8239H33.1113ZM39.8723 13.5915V8.73239H41.0164C42.0103 8.73239 42.5882 8.28639 42.75 7.39437C42.7731 7.25352 42.7847 7.10094 42.7847 6.93662C42.646 5.78638 42.0566 5.16432 41.0164 5.07042H39.8723V0.176056H41.1551C45.4775 0.340376 47.6734 2.54695 47.7427 6.79577C47.7427 9.94131 46.8528 11.9718 45.073 12.8873C44.0791 13.3803 42.7731 13.615 41.1551 13.5915C41.0858 13.5915 40.6581 13.5915 39.8723 13.5915Z" fill="#222222"/>
<path d="M49.5803 18.4507V6.58451C49.5803 5.22301 50.0772 3.89671 51.0712 2.60563C52.3887 0.892019 54.1685 0.0234742 56.4106 0V4.96479C55.4398 4.98826 54.8157 5.44601 54.5383 6.33803C54.4921 6.43193 54.469 6.51408 54.469 6.58451V18.4507C54.469 18.8263 54.6655 19.1901 55.0584 19.5423C55.4282 19.8709 55.879 20.0352 56.4106 20.0352V25C53.8218 25 51.8686 23.8967 50.5511 21.6901C49.9039 20.5634 49.5803 19.4836 49.5803 18.4507ZM58.2828 25V20.0352C58.2828 20.0352 58.5487 19.9296 59.0803 19.7183C59.4039 19.4836 59.6235 19.2371 59.7391 18.9789C59.8546 18.6737 59.9124 18.2394 59.9124 17.6761V17.2535L64.6971 18.4155C64.6971 20.4577 63.8881 22.1479 62.2701 23.4859C61.045 24.4953 59.7159 25 58.2828 25ZM58.2828 4.96479V0C59.9702 0 61.4957 0.751174 62.8595 2.25352C64.0846 3.61502 64.6971 5.08216 64.6971 6.65493L59.9124 7.92254V7.39437C59.9124 6.80751 59.8546 6.37324 59.7391 6.09155C59.6466 5.85681 59.4732 5.64554 59.219 5.45775C58.9878 5.26995 58.7798 5.14085 58.5949 5.07042L58.2828 4.96479Z" fill="#222222"/>
<path d="M66.708 17.9577V6.37324C66.708 5.12911 67.2281 3.8615 68.2682 2.57042C69.6551 0.880282 71.4118 0.0234742 73.5383 0V4.96479C72.5906 4.98826 71.9665 5.52817 71.6661 6.58451C71.6198 6.74883 71.5967 6.8662 71.5967 6.93662V17.9577C71.5967 18.9202 72.1168 19.5775 73.1569 19.9296C73.3187 19.9765 73.4343 20 73.5036 20V25C72.1861 25 70.8686 24.5188 69.5511 23.5563C67.6788 22.1479 66.7311 20.2817 66.708 17.9577ZM75.4106 25V20C75.7804 20 76.1965 19.8005 76.6588 19.4014C77.0979 19.0023 77.3291 18.5211 77.3522 17.9577V6.93662C77.3522 6.51408 77.1557 6.06808 76.7628 5.59859C76.3929 5.19953 75.9422 4.98826 75.4106 4.96479V0C77.7451 0 79.6174 1.02113 81.0274 3.06338C81.8364 4.23709 82.2409 5.34038 82.2409 6.37324V17.9577C82.2409 20.5634 81.0967 22.5587 78.8084 23.9437C77.6064 24.6479 76.4738 25 75.4106 25Z" fill="#222222"/>
<path d="M85.0146 24.8239V0.176056H89.9033V24.8239H85.0146ZM91.7756 24.8239V19.8592C92.2841 19.8592 92.7579 19.6479 93.1971 19.2254C93.5207 18.8498 93.694 18.4038 93.7172 17.8873V7.11268C93.7172 6.64319 93.5207 6.18545 93.1277 5.73944C92.7579 5.36385 92.3072 5.16432 91.7756 5.14085V0.176056C94.3412 0.176056 96.2828 1.33803 97.6004 3.66197C98.2707 4.85916 98.6058 6.00939 98.6058 7.11268V17.8873C98.6058 20.5634 97.4386 22.5587 95.104 23.8732C93.9483 24.507 92.8388 24.8239 91.7756 24.8239Z" fill="#222222"/>
<path d="M101.38 24.8239V0.176056H114V5.10563H106.268V10.1056H110.741V15.0704H106.268V19.8592H114V24.8239H101.38Z" fill="#222222"/>
</svg>
